<?xml version="1.0" encoding="UTF-8"?>
<svg width="48px" height="48px" viewBox="0 0 48 48" version="1.1" xmlns="http://www.w3.org/2000/svg" xmlns:xlink="http://www.w3.org/1999/xlink">
    <title>编组 3</title>
    <g id="控件" stroke="none" stroke-width="1" fill="none" fill-rule="evenodd">
        <g id="编组-3">
            <rect id="矩形" x="0" y="0" width="48" height="48"></rect>
            <g id="icon/36/警告备份-2" transform="translate(4.000000, 4.000000)">
                <circle id="椭圆形" fill="#FF7300" cx="20" cy="20" r="20"></circle>
                <g id="！" transform="translate(17.000000, 5.000000)" fill="#FFFFFF" fill-rule="nonzero">
                    <path d="M6,0 L5.30625,19 L0.65625,19 L0,0 L6,0 Z M2.98360656,22 C3.81420765,22 4.52459016,22.2934132 5.1147541,22.8802395 C5.70491803,23.4670659 6,24.1796407 6,25.0179641 C6,25.8323353 5.70491803,26.5329341 5.1147541,27.1197605 C4.52459016,27.7065868 3.81420765,28 2.98360656,28 C2.15300546,28 1.44808743,27.7065868 0.868852459,27.1197605 C0.289617486,26.5329341 0,25.8323353 0,25.0179641 C0,24.1796407 0.289617486,23.4670659 0.868852459,22.8802395 C1.44808743,22.2934132 2.15300546,22 2.98360656,22 Z" id="形状"></path>
                </g>
            </g>
        </g>
    </g>
</svg>