<?xml version="1.0" encoding="UTF-8"?>
<svg width="24px" height="24px" viewBox="0 0 24 24" version="1.1" xmlns="http://www.w3.org/2000/svg" xmlns:xlink="http://www.w3.org/1999/xlink">
    <title>icon / 24px / distance</title>
    <g id="icon-/-24px-/-distance" stroke="none" stroke-width="1" fill="none" fill-rule="evenodd">
        <rect id="矩形备份-8" x="0" y="1.42108547e-14" width="24" height="24"></rect>
        <path d="M16.2777778,3.07741102 L21.0337001,7.83333333 L7.94444444,20.922589 L3.18852213,16.1666667 L16.2777778,3.07741102 Z M6.68552213,13.847411 L5.6349056,14.8987945 L5.33952213,14.603411 L5.33078103,14.6136634 L6.99744769,16.2803301 L8.05810786,15.2196699 L6.68552213,13.847411 Z M8.76952213,11.764411 L7.70852213,12.824411 L9.91411436,15.0303301 L10.9747745,13.9696699 L8.76952213,11.764411 Z M10.8525221,9.68041102 L9.79152213,10.741411 L11.1641144,12.1136634 L12.2247745,11.0530032 L10.8525221,9.68041102 Z M12.9355221,7.59741102 L11.8755221,8.65841102 L14.080781,10.8636634 L15.1414412,9.80300325 L12.9355221,7.59741102 Z M14.9915221,5.54141102 L13.9305221,6.60241102 L15.3134225,7.98441769 L16.3740826,6.92375751 L14.9915221,5.54141102 Z" id="形状结合" fill="#FFFFFF" fill-rule="nonzero"></path>
        <polygon id="矩形" fill="#FFFFFF" points="21.0337001 13.4069558 21.0337001 20.922589 13.5180669 20.922589"></polygon>
    </g>
</svg>