<?xml version="1.0" encoding="UTF-8"?>
<svg width="80px" height="80px" viewBox="0 0 80 80" version="1.1" xmlns="http://www.w3.org/2000/svg" xmlns:xlink="http://www.w3.org/1999/xlink">
    <title>编组 2</title>
    <g id="多任务简易排程" stroke="none" stroke-width="1" fill="none" fill-rule="evenodd">
        <g id="计划" transform="translate(-70.000000, -697.000000)">
            <g id="编组-2" transform="translate(70.000000, 697.000000)">
                <rect id="矩形" x="0" y="0" width="80" height="80"></rect>
                <g id="编组-17" transform="translate(12.080099, 10.189032)">
                    <polygon id="路径" fill="#646B71" transform="translate(26.704468, 29.694522) rotate(-20.000000) translate(-26.704468, -29.694522) " points="46.2044677 54.1973521 46.2044677 17.4506695 35.1713873 5.19169131 7.20446767 5.1973521 7.20446767 54.1973521"></polygon>
                    <g id="编组" transform="translate(16.839802, 10.616275)">
                        <path d="M27.9669197,0 L39,12.2589782 L39,49.0056608 L0,49.0056608 L0,0.00566078991 L27.9669197,0 Z M31.8240128,39.1910861 L6.94725709,39.1910861 L6.85332643,39.1979781 C6.54681001,39.2433785 6.31161409,39.5075873 6.31161409,39.8267291 C6.31161409,40.177785 6.59620116,40.4623721 6.94725709,40.4623721 L6.94725709,40.4623721 L31.8240128,40.4623721 L31.9179434,40.4554801 C32.2244599,40.4100796 32.4596558,40.1458708 32.4596558,39.8267291 C32.4596558,39.4756731 32.1750687,39.1910861 31.8240128,39.1910861 L31.8240128,39.1910861 Z M31.8240128,31.5366997 L6.94725709,31.5366997 L6.85332643,31.5435917 C6.54681001,31.5889921 6.31161409,31.8532009 6.31161409,32.1723427 C6.31161409,32.5233986 6.59620116,32.8079857 6.94725709,32.8079857 L6.94725709,32.8079857 L31.8240128,32.8079857 L31.9179434,32.8010937 C32.2244599,32.7556933 32.4596558,32.4914845 32.4596558,32.1723427 C32.4596558,31.8212868 32.1750687,31.5366997 31.8240128,31.5366997 L31.8240128,31.5366997 Z M31.8240128,23.8823133 L6.94725709,23.8823133 L6.85332643,23.8892053 C6.54681001,23.9346058 6.31161409,24.1988146 6.31161409,24.5179563 C6.31161409,24.8690123 6.59620116,25.1535993 6.94725709,25.1535993 L6.94725709,25.1535993 L31.8240128,25.1535993 L31.9179434,25.1467073 C32.2244599,25.1013069 32.4596558,24.8370981 32.4596558,24.5179563 C32.4596558,24.1669004 32.1750687,23.8823133 31.8240128,23.8823133 L31.8240128,23.8823133 Z" id="形状结合" fill="#40464E"></path>
                        <polygon id="路径" fill="#646B71" points="27.9510418 0 27.9510418 12.2589782 39 12.2589782"></polygon>
                    </g>
                </g>
            </g>
        </g>
    </g>
</svg>