<?xml version="1.0" encoding="UTF-8"?>
<svg width="32px" height="32px" viewBox="0 0 32 32" version="1.1" xmlns="http://www.w3.org/2000/svg" xmlns:xlink="http://www.w3.org/1999/xlink">
    <title>icon / 32px / 加工完成</title>
    <g id="icon-/-32px-/-加工完成" stroke="none" stroke-width="1" fill="none" fill-rule="evenodd">
        <rect id="矩形" x="0" y="0" width="32" height="32"></rect>
        <g id="编组" transform="translate(2.000000, 2.000000)">
            <path d="M14.0345738,27.9980864 C10.286099,27.9980864 6.76413161,26.5413332 4.11266308,23.8987473 C1.46119456,21.2561614 0,17.7386353 0,13.9990432 C0,10.2594511 1.46119456,6.741925 4.11266308,4.09933912 C6.76413161,1.45675325 10.286099,0 14.0345738,0 C16.0420508,0 17.982908,0.413042817 19.7994082,1.23468719 C20.4700476,1.536697 20.7720574,2.32725211 20.4700476,2.99789155 C20.1680378,3.668531 19.3774827,3.97054081 18.7068433,3.668531 C17.236766,3.00677421 15.6645385,2.66923383 14.0345738,2.66923383 C11.0011517,2.66923383 8.14538237,3.84618384 6.00022441,5.98690046 C3.85506645,8.12761707 2.67367514,10.9700624 2.67367514,13.9946019 C2.67367514,17.0191413 3.85506645,19.866028 6.00022441,22.0023033 C8.14538237,24.1430199 11.0011517,25.3199699 14.0345738,25.3199699 C16.8681364,25.3199699 19.5817835,24.2762595 21.6736456,22.3753742 C23.7521837,20.4922542 25.0534907,18.0362038 25.3377352,15.2603783 C25.4132377,14.5275603 26.0661119,13.9946019 26.7989298,14.065663 C27.5317477,14.1411654 28.0647062,14.7940396 27.9936451,15.5268575 C27.6427808,18.9599985 26.0350226,22.0200685 23.4679392,24.3473206 C20.8830905,26.7056621 17.5298932,27.9980864 14.0345738,27.9980864 Z" id="路径" fill="#1890FF" fill-rule="nonzero"></path>
            <path d="M19.0409897,2.55810634 C17.4990461,1.87777789 15.7936404,1.5 14,1.5 C7.09644063,1.5 1.5,7.09644063 1.5,14 C1.5,20.9035594 7.09644063,26.5 14,26.5 C20.9035594,26.5 26.5,20.9035594 26.5,14" id="路径" stroke="#1890FF" stroke-width="3" stroke-linecap="round"></path>
            <path d="M26.6390422,4.92542484 C26.1194077,4.40134898 25.2755567,4.40134898 24.7514809,4.92098354 L13.8924515,15.7489237 L9.18465146,11.0544476 C8.66057559,10.5348131 7.81672465,10.5348131 7.29709013,11.0588889 C6.77745561,11.5829647 6.77745561,12.4268157 7.30153143,12.9464502 L12.9508915,18.5824863 C13.2129294,18.8445243 13.5504698,18.9733226 13.8924515,18.9733226 C14.2344332,18.9733226 14.5764149,18.8445243 14.8384528,18.5824863 L26.6346009,6.81298618 C27.1586768,6.28891031 27.1586768,5.44505937 26.6390422,4.92542484 Z" id="路径" fill="#1890FF" fill-rule="nonzero"></path>
            <polyline id="路径-2" stroke="#1890FF" stroke-width="3" stroke-linecap="round" stroke-linejoin="round" points="8 12 14 18 26 6"></polyline>
        </g>
    </g>
</svg>