<?xml version="1.0" encoding="UTF-8"?>
<svg width="153px" height="153px" viewBox="0 0 153 153" version="1.1" xmlns="http://www.w3.org/2000/svg" xmlns:xlink="http://www.w3.org/1999/xlink">
    <title>编组 2</title>
    <g id="多任务简易排程" stroke="none" stroke-width="1" fill="none" fill-rule="evenodd">
        <g id="计划-最近生产" transform="translate(-282.000000, -458.000000)">
            <g id="编组-2" transform="translate(282.500000, 458.500000)">
                <rect id="矩形" x="0" y="0" width="152" height="152"></rect>
                <g id="文件夹tab/未选中备份-4" opacity="0.7" transform="translate(4.500000, 30.000000)">
                    <path d="M34.885962,0 C36.3141378,6.2582679e-16 37.6484737,0.711422459 38.4444102,1.89724332 L40.6319183,5.15628831 C41.4278548,6.34210917 42.7621907,7.05353163 44.1903665,7.05353163 L117.714286,7.05353163 C120.08122,7.05353163 122,8.97231127 122,11.3392459 L122,86 L2,86 L2,4.28571429 C2,1.91877964 3.91877964,6.65204778e-15 6.28571429,0 L34.885962,0 Z M61.0227273,15.6363636 L18.7849426,15.6363636 C18.2452098,15.6363636 17.8076699,16.0739035 17.8076699,16.6136364 C17.8076699,17.1533692 18.2452098,17.5909091 18.7849426,17.5909091 L18.7849426,17.5909091 L61.0227273,17.5909091 C61.5624601,17.5909091 62,17.1533692 62,16.6136364 C62,16.0739035 61.5624601,15.6363636 61.0227273,15.6363636 L61.0227273,15.6363636 Z M11.0680731,19.1136364 C12.4487849,19.1136364 13.5680731,17.9943482 13.5680731,16.6136364 C13.5680731,15.2329245 12.4487849,14.1136364 11.0680731,14.1136364 C9.68736119,14.1136364 8.56807307,15.2329245 8.56807307,16.6136364 C8.56807307,17.9943482 9.68736119,19.1136364 11.0680731,19.1136364 Z" id="形状结合" fill="#717B87" opacity="0.6"></path>
                    <path d="M25.8129595,28 L137.31204,28 C139.521179,28 141.31204,29.790861 141.31204,32 C141.31204,32.461147 141.232299,32.9188211 141.076339,33.3527949 L120.951339,89.3527949 C120.380611,90.9409077 118.874593,92 117.18704,92 L5.68795953,92 C3.47882053,92 1.68795953,90.209139 1.68795953,88 C1.68795953,87.538853 1.76770135,87.0811789 1.92366067,86.6472051 L22.0486607,30.6472051 C22.6193887,29.0590923 24.1254072,28 25.8129595,28 Z" id="矩形" fill="#252E37"></path>
                </g>
            </g>
        </g>
    </g>
</svg>