<?xml version="1.0" encoding="UTF-8"?>
<svg width="20px" height="21px" viewBox="0 0 20 21" version="1.1" xmlns="http://www.w3.org/2000/svg" xmlns:xlink="http://www.w3.org/1999/xlink">
    <title>编组 9备份 2</title>
    <g id="多任务简易排程" stroke="none" stroke-width="1" fill="none" fill-rule="evenodd">
        <g id="计划" transform="translate(-40.000000, -870.000000)">
            <g id="编组-9备份-2" transform="translate(40.000000, 870.512325)">
                <rect id="矩形" x="0" y="0" width="20" height="20"></rect>
                <g id="编组" transform="translate(2.118056, 2.977431)" fill-rule="nonzero">
                    <path d="M2.98977666,13.8541667 C2.54765253,13.8541667 2.18924011,13.5743446 2.18924011,13.2291667 C2.18924011,12.9223418 2.47243017,12.6671562 2.8458792,12.6142363 L2.98977666,12.6041667 L6.521,12.604 L6.521,10.416 L1.38888889,10.4166667 C0.666948039,10.4166667 0.0736586313,9.86584437 0.00635794265,9.16153705 L0,9.02777778 L0,1.38888889 C0,0.621826736 0.621826736,0 1.38888889,0 L1.38888889,0 L14.375,0 C15.1420622,0 15.7638889,0.621826736 15.7638889,1.38888889 L15.7638889,1.38888889 L15.7638889,9.02777778 C15.7638889,9.79483993 15.1420622,10.4166667 14.375,10.4166667 L14.375,10.4166667 L9.242,10.416 L9.242,12.604 L12.7741122,12.6041667 C13.2162364,12.6041667 13.5746488,12.8839887 13.5746488,13.2291667 C13.5746488,13.5359915 13.2914587,13.7911771 12.9180097,13.8440971 L12.7741122,13.8541667 L2.98977666,13.8541667 Z" id="矩形" fill="#00D0CE"></path>
                    <path d="M1.38888889,1.25 L14.375,1.25 C14.4517062,1.25 14.5138889,1.30757451 14.5138889,1.37859627 L14.5138889,8.45139089 C14.5138889,8.52241265 14.4517062,8.57998716 14.375,8.57998716 L1.38888889,8.57998716 C1.31218267,8.57998716 1.25,8.52241265 1.25,8.45139089 L1.25,1.37859627 C1.25,1.30757451 1.31218267,1.25 1.38888889,1.25 Z" id="路径" fill="#0F6B6A"></path>
                </g>
            </g>
        </g>
    </g>
</svg>