<?xml version="1.0" encoding="UTF-8"?>
<svg width="16px" height="20px" viewBox="0 0 16 20" version="1.1" xmlns="http://www.w3.org/2000/svg" xmlns:xlink="http://www.w3.org/1999/xlink">
    <title>编组</title>
    <g id="文件管理" stroke="none" stroke-width="1" fill="none" fill-rule="evenodd">
        <g id="编组">
            <path d="M0,20 L0,1 C0,0.447715 0.447715,0 1,0 L15,0 C15.5523,0 16,0.447715 16,1 L16,20 L8,15.86365 L0,20 Z" id="路径" fill="#FD5555"></path>
            <g id="新" transform="translate(3.340000, 4.210000)" fill="#FFFFFF" fill-rule="nonzero">
                <path d="M8.6,0.22 C7.63,0.64 6.54,0.87 5.33,0.89 L5.33,5.17 C5.28,6.69 4.96,7.88 4.37,8.74 L4.88,9.28 C5.6,8.26 5.98,6.89 6.03,5.17 L6.03,3.98 L7.51,3.98 L7.51,9.32 L8.22,9.32 L8.22,3.98 L9.26,3.98 L9.26,3.29 L6.03,3.29 L6.03,1.47 C7.11,1.41 8.08,1.2 8.96,0.86 L8.6,0.22 Z M0.27,0.99 L0.27,1.65 L4.78,1.65 L4.78,0.99 L2.89,0.99 C2.75,0.63 2.61,0.3 2.46,0 L1.72,0.12 C1.89,0.38 2.04,0.67 2.18,0.99 L0.27,0.99 Z M0.17,3.26 L0.17,3.91 L2.19,3.91 L2.19,5.03 L0.33,5.03 L0.33,5.69 L2.19,5.69 L2.19,8.35 C2.19,8.59 2.06,8.71 1.8,8.71 C1.66,8.71 1.51,8.69 1.35,8.66 L1.5,9.33 L2.04,9.33 C2.62,9.33 2.91,9.06 2.91,8.52 L2.91,5.69 L4.67,5.69 L4.67,5.03 L2.91,5.03 L2.91,3.91 L4.84,3.91 L4.84,3.26 L3.71,3.26 C3.9,2.92 4.07,2.53 4.23,2.1 L3.58,1.88 C3.43,2.36 3.26,2.82 3.06,3.26 L1.96,3.26 C1.8,2.72 1.62,2.27 1.43,1.9 L0.79,2.13 C0.99,2.48 1.17,2.86 1.32,3.26 L0.17,3.26 Z M1.03,6.23 C0.81,7.11 0.47,7.91 0,8.63 L0.6,9.01 C1.06,8.26 1.43,7.38 1.69,6.37 L1.03,6.23 Z M3.9,6.16 L3.3,6.32 C3.58,6.92 3.81,7.54 4,8.17 L4.6,7.94 C4.44,7.4 4.2,6.81 3.9,6.16 Z" id="形状"></path>
            </g>
        </g>
    </g>
</svg>