<?xml version="1.0" encoding="UTF-8"?>
<svg width="24px" height="24px" viewBox="0 0 24 24" version="1.1" xmlns="http://www.w3.org/2000/svg" xmlns:xlink="http://www.w3.org/1999/xlink">
    <title>icon / 24px / time</title>
    <g id="icon-/-24px-/-time" stroke="none" stroke-width="1" fill="none" fill-rule="evenodd">
        <rect id="矩形备份-7" x="0" y="1.42108547e-14" width="24" height="24"></rect>
        <path d="M14.7336489,2.47222222 L14.7336489,3.97222222 L12.7494444,3.97222222 L12.7497765,6.37006753 C14.1628116,6.50926992 15.4615221,7.03774858 16.5372078,7.84680327 L17.6918921,6.69189214 L18.7525523,7.75255231 L17.6420647,8.8634834 C18.8322826,10.1988038 19.5555556,11.9593816 19.5555556,13.8888889 C19.5555556,18.061707 16.1728181,21.4444444 12,21.4444444 C7.82718189,21.4444444 4.44444444,18.061707 4.44444444,13.8888889 C4.44444444,9.96909386 7.42938783,6.74646971 11.2502235,6.37006753 L11.2494444,3.97222222 L9.2663511,3.97222222 L9.2663511,2.47222222 L14.7336489,2.47222222 Z M12.75,10.6388889 L11.25,10.6388889 L11.2494444,13.1383333 L8.75,13.1388889 L8.75,14.6388889 L12.75,14.6388889 L12.75,10.6388889 Z" id="形状结合" fill="#FFFFFF" fill-rule="nonzero"></path>
    </g>
</svg>