<?xml version="1.0" encoding="UTF-8"?>
<svg width="32px" height="32px" viewBox="0 0 32 32" version="1.1" xmlns="http://www.w3.org/2000/svg" xmlns:xlink="http://www.w3.org/1999/xlink">
    <title>icon / 32px / 正在加工</title>
    <g id="icon-/-32px-/-正在加工" stroke="none" stroke-width="1" fill="none" fill-rule="evenodd">
        <rect id="矩形" x="0" y="0" width="32" height="32"></rect>
        <polygon id="矩形" fill="#40FF4A" points="12 10 23 16 12 22"></polygon>
        <path d="M16,2 C8.2680135,2 2,8.2680135 2,16 C2,23.7319865 8.2680135,30 16,30 C23.7319865,30 30,23.7319865 30,16 C30,8.2680135 23.7319865,2 16,2 Z M16,5 C22.0751322,5 27,9.92486775 27,16 C27,22.0751322 22.0751322,27 16,27 C9.92486775,27 5,22.0751322 5,16 C5,9.92486775 9.92486775,5 16,5 Z" id="椭圆形" fill="#40FF4A" fill-rule="nonzero"></path>
    </g>
</svg>