<svg width="256" height="257" viewBox="0 0 256 257" fill="none" xmlns="http://www.w3.org/2000/svg">
<g filter="url(#filter0_di_5041_504552)">
<rect x="6" y="6" width="244" height="244" rx="48" fill="url(#paint0_linear_5041_504552)"/>
</g>
<g filter="url(#filter1_d_5041_504552)">
<path fill-rule="evenodd" clip-rule="evenodd" d="M170.667 54.8571C170.667 48.1245 176.125 42.6666 182.857 42.6666H201.143C207.876 42.6666 213.333 48.1245 213.333 54.8571V93.4603C213.333 120.391 191.502 142.222 164.572 142.222H85.3334L85.3334 201.143C85.3334 207.875 79.8756 213.333 73.1429 213.333H54.8572C48.1246 213.333 42.6667 207.875 42.6667 201.143V54.8571C42.6667 48.1245 48.1246 42.6666 54.8572 42.6666H73.1429C79.8755 42.6666 85.3334 48.1245 85.3334 54.8571L85.3334 99.5555H146.286C159.751 99.5555 170.667 88.6398 170.667 75.1746V54.8571ZM213.333 168.635C213.333 161.902 207.876 156.444 201.143 156.444H182.857C176.125 156.444 170.667 161.902 170.667 168.635V201.143C170.667 207.875 176.125 213.333 182.857 213.333H201.143C207.876 213.333 213.333 207.875 213.333 201.143V168.635Z" fill="url(#paint1_linear_5041_504552)"/>
</g>
<defs>
<filter id="filter0_di_5041_504552" x="3" y="6" width="250" height="251" filterUnits="userSpaceOnUse" color-interpolation-filters="sRGB">
<feFlood flood-opacity="0" result="BackgroundImageFix"/>
<feColorMatrix in="SourceAlpha" type="matrix" values="0 0 0 0 0 0 0 0 0 0 0 0 0 0 0 0 0 0 127 0" result="hardAlpha"/>
<feMorphology radius="1" operator="dilate" in="SourceAlpha" result="effect1_dropShadow_5041_504552"/>
<feOffset dy="4"/>
<feGaussianBlur stdDeviation="1"/>
<feComposite in2="hardAlpha" operator="out"/>
<feColorMatrix type="matrix" values="0 0 0 0 0 0 0 0 0 0 0 0 0 0 0 0 0 0 0.6 0"/>
<feBlend mode="normal" in2="BackgroundImageFix" result="effect1_dropShadow_5041_504552"/>
<feBlend mode="normal" in="SourceGraphic" in2="effect1_dropShadow_5041_504552" result="shape"/>
<feColorMatrix in="SourceAlpha" type="matrix" values="0 0 0 0 0 0 0 0 0 0 0 0 0 0 0 0 0 0 127 0" result="hardAlpha"/>
<feMorphology radius="1" operator="erode" in="SourceAlpha" result="effect2_innerShadow_5041_504552"/>
<feOffset dy="2"/>
<feGaussianBlur stdDeviation="1"/>
<feComposite in2="hardAlpha" operator="arithmetic" k2="-1" k3="1"/>
<feColorMatrix type="matrix" values="0 0 0 0 1 0 0 0 0 1 0 0 0 0 1 0 0 0 0.6 0"/>
<feBlend mode="normal" in2="shape" result="effect2_innerShadow_5041_504552"/>
</filter>
<filter id="filter1_d_5041_504552" x="36.6667" y="40.6666" width="182.667" height="182.667" filterUnits="userSpaceOnUse" color-interpolation-filters="sRGB">
<feFlood flood-opacity="0" result="BackgroundImageFix"/>
<feColorMatrix in="SourceAlpha" type="matrix" values="0 0 0 0 0 0 0 0 0 0 0 0 0 0 0 0 0 0 127 0" result="hardAlpha"/>
<feOffset dy="4"/>
<feGaussianBlur stdDeviation="3"/>
<feComposite in2="hardAlpha" operator="out"/>
<feColorMatrix type="matrix" values="0 0 0 0 0 0 0 0 0 0 0 0 0 0 0 0 0 0 0.3 0"/>
<feBlend mode="normal" in2="BackgroundImageFix" result="effect1_dropShadow_5041_504552"/>
<feBlend mode="normal" in="SourceGraphic" in2="effect1_dropShadow_5041_504552" result="shape"/>
</filter>
<linearGradient id="paint0_linear_5041_504552" x1="128" y1="6" x2="128" y2="250" gradientUnits="userSpaceOnUse">
<stop stop-color="#4BB4FF"/>
<stop offset="0.78016" stop-color="#2F64F7"/>
</linearGradient>
<linearGradient id="paint1_linear_5041_504552" x1="128" y1="42.6666" x2="128" y2="213.333" gradientUnits="userSpaceOnUse">
<stop offset="0.51" stop-color="white"/>
<stop offset="1" stop-color="#EDF7FF"/>
</linearGradient>
</defs>
</svg>
