<?xml version="1.0" encoding="UTF-8"?>
<svg width="24px" height="24px" viewBox="0 0 24 24" version="1.1" xmlns="http://www.w3.org/2000/svg" xmlns:xlink="http://www.w3.org/1999/xlink">
    <title>length_24x24@1x</title>
    <g id="页面-1" stroke="none" stroke-width="1" fill="none" fill-rule="evenodd">
        <g id="接口开放平台主页_看板" transform="translate(-500.000000, -201.000000)">
            <g id="编组-12" transform="translate(500.000000, 201.000000)">
                <rect id="矩形" fill="#F0EFFB" x="0" y="0" width="24" height="24" rx="12"></rect>
                <g id="编组-6备份-2" transform="translate(5.082353, 3.529412)">
                    <path d="M14.1470588,0 C14.754572,-1.11598369e-16 15.2470588,0.492486775 15.2470588,1.1 L15.2470588,4.36273299 C15.2470588,4.91857268 14.8347884,5.37812145 14.2993506,5.45227618 L14.2991179,6.13602232 C14.2991179,6.55354397 14.032005,6.90867806 13.6593447,7.03985912 L13.6583745,7.72986078 C13.6583745,7.90504442 13.5163601,8.04705882 13.3411765,8.04705882 C13.1659928,8.04705882 13.0239784,7.90504442 13.0239784,7.72986078 L13.0239342,7.04018453 C12.6507905,6.90926615 12.3832351,6.5538897 12.3832351,6.13602232 L12.3819935,5.45213599 C11.8470468,5.37754408 11.4352941,4.91822354 11.4352941,4.36273299 L11.4352941,1.1 C11.4352941,0.492486775 11.9277809,1.11598369e-16 12.5352941,0 L14.1470588,0 Z" id="形状结合备份-9" fill="#67C23A"></path>
                    <path d="M13.1294118,8.26305882 C13.3609815,8.26305882 13.5487059,8.48691645 13.5487059,8.76305882 C13.5487059,9.01947674 13.3868415,9.2308124 13.1783103,9.25969496 L13.1294118,9.26305882 L0.423529412,9.26305882 C0.191959665,9.26305882 0.00423529412,9.0392012 0.00423529412,8.76305882 C0.00423529412,8.5066409 0.166099675,8.29530524 0.37463086,8.26642269 L0.423529412,8.26305882 L13.1294118,8.26305882 Z" id="路径-2备份-66" fill="#8C82FF" fill-rule="nonzero"></path>
                    <path d="M15.6705882,2.33364706 C15.902158,2.33364706 16.0898824,2.55750468 16.0898824,2.83364706 C16.0898824,3.09006498 15.928018,3.30140064 15.7194868,3.33028319 L15.6705882,3.33364706 L12.7058824,3.33364706 C12.4743126,3.33364706 12.2865882,3.10978943 12.2865882,2.83364706 C12.2865882,2.57722914 12.4484526,2.36589348 12.6569838,2.33701092 L12.7058824,2.33364706 L15.6705882,2.33364706 Z" id="路径-2备份-67" fill="#F0EFFB" fill-rule="nonzero" transform="translate(14.188235, 2.833647) rotate(-270.000000) translate(-14.188235, -2.833647) "></path>
                    <path d="M3.54117647,10.0503529 C3.72128627,10.0503529 3.86729412,10.2742106 3.86729412,10.5503529 C3.86729412,10.8034835 3.74460697,11.0126802 3.5854287,11.0457885 L3.54117647,11.0503529 L2.69411765,11.0503529 C2.51400784,11.0503529 2.368,10.8264953 2.368,10.5503529 C2.368,10.2972224 2.49068715,10.0880256 2.64986541,10.0549174 L2.69411765,10.0503529 L3.54117647,10.0503529 Z" id="路径-2备份-68" fill="#8C82FF" fill-rule="nonzero" transform="translate(3.117647, 10.550353) rotate(90.000000) translate(-3.117647, -10.550353) "></path>
                    <path d="M5.92941176,10.0503529 C6.10952157,10.0503529 6.25552941,10.2742106 6.25552941,10.5503529 C6.25552941,10.8034835 6.13284227,11.0126802 5.973664,11.0457885 L5.92941176,11.0503529 L5.08235294,11.0503529 C4.90224314,11.0503529 4.75623529,10.8264953 4.75623529,10.5503529 C4.75623529,10.2972224 4.87892244,10.0880256 5.03810071,10.0549174 L5.08235294,10.0503529 L5.92941176,10.0503529 Z" id="路径-2备份-70" fill="#8C82FF" fill-rule="nonzero" transform="translate(5.505882, 10.550353) rotate(90.000000) translate(-5.505882, -10.550353) "></path>
                    <path d="M10.8941176,10.0503529 C11.0742275,10.0503529 11.2202353,10.2742106 11.2202353,10.5503529 C11.2202353,10.8034835 11.0975481,11.0126802 10.9383699,11.0457885 L10.8941176,11.0503529 L10.0470588,11.0503529 C9.86694902,11.0503529 9.72094118,10.8264953 9.72094118,10.5503529 C9.72094118,10.2972224 9.84362832,10.0880256 10.0028066,10.0549174 L10.0470588,10.0503529 L10.8941176,10.0503529 Z" id="路径-2备份-71" fill="#8C82FF" fill-rule="nonzero" transform="translate(10.470588, 10.550353) rotate(90.000000) translate(-10.470588, -10.550353) "></path>
                    <path d="M14.4,10.8974118 C14.5801098,10.8974118 14.7261176,11.1212694 14.7261176,11.3974118 C14.7261176,11.6505423 14.6034305,11.8597391 14.4442522,11.8928474 L14.4,11.8974118 L12.2823529,11.8974118 C12.1022431,11.8974118 11.9562353,11.6735541 11.9562353,11.3974118 C11.9562353,11.1442813 12.0789224,10.9350845 12.2381007,10.9019762 L12.2823529,10.8974118 L14.4,10.8974118 Z" id="路径-2备份-74" fill="#8C82FF" fill-rule="nonzero" transform="translate(13.341176, 11.397412) rotate(90.000000) translate(-13.341176, -11.397412) "></path>
                    <path d="M1.69411765,10.8974118 C1.87422745,10.8974118 2.02023529,11.1212694 2.02023529,11.3974118 C2.02023529,11.6505423 1.89754815,11.8597391 1.73836988,11.8928474 L1.69411765,11.8974118 L-0.423529412,11.8974118 C-0.603639215,11.8974118 -0.749647059,11.6735541 -0.749647059,11.3974118 C-0.749647059,11.1442813 -0.626959912,10.9350845 -0.467781645,10.9019762 L-0.423529412,10.8974118 L1.69411765,10.8974118 Z" id="路径-2备份-75" fill="#8C82FF" fill-rule="nonzero" transform="translate(0.635294, 11.397412) rotate(90.000000) translate(-0.635294, -11.397412) "></path>
                    <path d="M9.04705882,10.8974118 C9.22716863,10.8974118 9.37317647,11.1212694 9.37317647,11.3974118 C9.37317647,11.6505423 9.25048932,11.8597391 9.09131106,11.8928474 L9.04705882,11.8974118 L6.92941176,11.8974118 C6.74930196,11.8974118 6.60329412,11.6735541 6.60329412,11.3974118 C6.60329412,11.1442813 6.72598126,10.9350845 6.88515953,10.9019762 L6.92941176,10.8974118 L9.04705882,10.8974118 Z" id="路径-2备份-76" fill="#8C82FF" fill-rule="nonzero" transform="translate(7.988235, 11.397412) rotate(90.000000) translate(-7.988235, -11.397412) "></path>
                    <circle id="椭圆形备份-11" fill="#F0EFFB" cx="1.05882353" cy="5.71764706" r="1.05882353"></circle>
                </g>
            </g>
        </g>
    </g>
</svg>