<?xml version="1.0" encoding="UTF-8"?>
<svg width="24px" height="24px" viewBox="0 0 24 24" version="1.1" xmlns="http://www.w3.org/2000/svg" xmlns:xlink="http://www.w3.org/1999/xlink">
    <title>light_24x24@1x</title>
    <g id="页面-1" stroke="none" stroke-width="1" fill="none" fill-rule="evenodd">
        <g id="接口开放平台主页_看板" transform="translate(-794.000000, -201.000000)">
            <g id="light_24x24" transform="translate(794.000000, 201.000000)">
                <g id="编组-15">
                    <g id="编组-12备份" fill="#E8EFFA">
                        <rect id="矩形" x="0" y="0" width="24" height="24" rx="12"></rect>
                    </g>
                    <g id="编组-13" transform="translate(5.000000, 5.000000)"></g>
                </g>
                <g id="编组-14" transform="translate(5.000000, 5.000000)" fill="#1890FF">
                    <g id="编组-12备份" transform="translate(6.000000, 6.000000)">
                        <rect id="矩形" x="0" y="0" width="2" height="2" rx="1"></rect>
                    </g>
                    <rect id="矩形" x="6.58823529" y="0" width="1" height="4.11764706" rx="0.5"></rect>
                    <rect id="矩形备份-3" x="6.58823529" y="9.88235294" width="1" height="4.11764706" rx="0.5"></rect>
                    <path d="M11.9411765,4.94117647 C12.1685878,4.94117647 12.3529412,5.12552981 12.3529412,5.35294118 L12.3529412,8.64705882 C12.3529412,8.87447019 12.1685878,9.05882353 11.9411765,9.05882353 C11.7137651,9.05882353 11.5294118,8.87447019 11.5294118,8.64705882 L11.5294118,5.35294118 C11.5294118,5.12552981 11.7137651,4.94117647 11.9411765,4.94117647 Z" id="矩形备份" transform="translate(11.941176, 7.000000) rotate(90.000000) translate(-11.941176, -7.000000) "></path>
                    <path d="M2.05882353,4.94117647 C2.2862349,4.94117647 2.47058824,5.12552981 2.47058824,5.35294118 L2.47058824,8.64705882 C2.47058824,8.87447019 2.2862349,9.05882353 2.05882353,9.05882353 C1.83141216,9.05882353 1.64705882,8.87447019 1.64705882,8.64705882 L1.64705882,5.35294118 C1.64705882,5.12552981 1.83141216,4.94117647 2.05882353,4.94117647 Z" id="矩形备份-2" transform="translate(2.058824, 7.000000) rotate(90.000000) translate(-2.058824, -7.000000) "></path>
                    <path d="M2.88235294,9.05882353 C3.10976431,9.05882353 3.29411765,9.24317687 3.29411765,9.47058824 L3.29411765,12.7647059 C3.29411765,12.9921172 3.10976431,13.1764706 2.88235294,13.1764706 C2.65494157,13.1764706 2.47058824,12.9921172 2.47058824,12.7647059 L2.47058824,9.47058824 C2.47058824,9.24317687 2.65494157,9.05882353 2.88235294,9.05882353 Z" id="矩形备份-4" transform="translate(2.882353, 11.117647) rotate(45.000000) translate(-2.882353, -11.117647) "></path>
                    <path d="M11.1176471,1.64705882 C11.3450584,1.64705882 11.5294118,1.83141216 11.5294118,2.05882353 L11.5294118,5.35294118 C11.5294118,5.58035254 11.3450584,5.76470588 11.1176471,5.76470588 C10.8902357,5.76470588 10.7058824,5.58035254 10.7058824,5.35294118 L10.7058824,2.05882353 C10.7058824,1.83141216 10.8902357,1.64705882 11.1176471,1.64705882 Z" id="矩形备份-5" transform="translate(11.117647, 3.705882) rotate(45.000000) translate(-11.117647, -3.705882) "></path>
                    <path d="M2.88235294,0.823529412 C3.10976431,0.823529412 3.29411765,1.00788275 3.29411765,1.23529412 L3.29411765,4.52941176 C3.29411765,4.75682313 3.10976431,4.94117647 2.88235294,4.94117647 C2.65494157,4.94117647 2.47058824,4.75682313 2.47058824,4.52941176 L2.47058824,1.23529412 C2.47058824,1.00788275 2.65494157,0.823529412 2.88235294,0.823529412 Z" id="矩形备份-6" transform="translate(2.882353, 2.882353) scale(-1, 1) rotate(45.000000) translate(-2.882353, -2.882353) "></path>
                    <path d="M11.1176471,9.05882353 C11.3450584,9.05882353 11.5294118,9.24317687 11.5294118,9.47058824 L11.5294118,12.7647059 C11.5294118,12.9921172 11.3450584,13.1764706 11.1176471,13.1764706 C10.8902357,13.1764706 10.7058824,12.9921172 10.7058824,12.7647059 L10.7058824,9.47058824 C10.7058824,9.24317687 10.8902357,9.05882353 11.1176471,9.05882353 Z" id="矩形备份-7" transform="translate(11.117647, 11.117647) scale(-1, 1) rotate(45.000000) translate(-11.117647, -11.117647) "></path>
                </g>
            </g>
        </g>
    </g>
</svg>