<?xml version="1.0" encoding="UTF-8"?>
<svg width="56px" height="138px" viewBox="0 0 56 138" version="1.1" xmlns="http://www.w3.org/2000/svg" xmlns:xlink="http://www.w3.org/1999/xlink">
    <title>link_56x126@1x</title>
    <defs>
        <linearGradient x1="50%" y1="0%" x2="50%" y2="100%" id="linearGradient-1">
            <stop stop-color="#F4F5F8" offset="0%"></stop>
            <stop stop-color="#FEFEFE" offset="100%"></stop>
        </linearGradient>
        <rect id="path-2" x="7" y="0" width="42" height="126" rx="21"></rect>
        <filter x="-25.0%" y="-6.0%" width="150.0%" height="116.7%" filterUnits="objectBoundingBox" id="filter-3">
            <feOffset dx="0" dy="3" in="SourceAlpha" result="shadowOffsetOuter1"></feOffset>
            <feGaussianBlur stdDeviation="3" in="shadowOffsetOuter1" result="shadowBlurOuter1"></feGaussianBlur>
            <feComposite in="shadowBlurOuter1" in2="SourceAlpha" operator="out" result="shadowBlurOuter1"></feComposite>
            <feColorMatrix values="0 0 0 0 0.805225317   0 0 0 0 0.805225317   0 0 0 0 0.805225317  0 0 0 1 0" type="matrix" in="shadowBlurOuter1"></feColorMatrix>
        </filter>
    </defs>
    <g id="页面-1" stroke="none" stroke-width="1" fill="none" fill-rule="evenodd">
        <g id="编组-2" transform="translate(0.000000, 3.000000)">
            <g id="矩形">
                <use fill="black" fill-opacity="1" filter="url(#filter-3)" xlink:href="#path-2"></use>
                <rect stroke="#FFFFFF" stroke-width="1" stroke-linejoin="square" fill="url(#linearGradient-1)" fill-rule="evenodd" x="7.5" y="0.5" width="41" height="125" rx="20.5"></rect>
            </g>
            <text id="---↳-主要操作" font-family="PingFangSC-Regular, PingFang SC" font-size="14" font-weight="normal" line-spacing="18" fill="#1890FF">
                <tspan x="19.992" y="55">快</tspan>
                <tspan x="19.992" y="73">捷</tspan>
                <tspan x="19.992" y="91">导</tspan>
                <tspan x="19.992" y="109">航</tspan>
            </text>
            <g id="导航" transform="translate(19.000000, 13.000000)" fill="#1890FF" fill-rule="nonzero">
                <path d="M15.9296971,18 C15.5696529,18.0002847 15.2183114,17.8894337 14.9237298,17.6826073 L8.49965787,13.1157109 L7.52898767,17.0125607 C7.44807272,17.3256938 7.16437613,17.5437273 6.84069425,17.5415449 C6.51183693,17.5417555 6.22639367,17.3150671 6.15240083,16.9949279 L4.70521979,10.8058134 C4.6827579,10.6976996 4.61090958,10.6063379 4.51108574,10.5589542 L0.875484615,8.8662049 L0.787241856,8.81330649 C0.242080936,8.45089987 -0.0574369905,7.81671545 0.00918450585,7.16588641 C0.0758060022,6.51505737 0.497614434,5.95457915 1.10491575,5.70993285 L15.5943747,0.120333731 C16.1602677,-0.0999718253 16.7997818,-0.0140898804 17.2873655,0.347689669 C17.7749492,0.709469218 18.042093,1.29631348 17.9945774,1.90124702 L17.694552,16.3425141 L17.694552,16.3954126 C17.6354265,17.020837 17.2445091,17.5662863 16.6709362,17.8236697 C16.4396549,17.9356699 16.1866801,17.9958483 15.9296971,18 Z M15.7355631,16.5188422 C15.8344752,16.5865843 15.9610463,16.5995176 16.0716358,16.5531827 C16.1822254,16.5068479 16.261704,16.4075837 16.2826681,16.2896157 L16.5826934,1.8483486 L16.5826934,1.79545018 C16.5969833,1.67297917 16.5462142,1.55194498 16.4487999,1.47624587 C16.3513856,1.40054676 16.2214738,1.38117678 16.1061826,1.42516129 L1.61672367,7.0147604 C1.4991486,7.05826459 1.41349644,7.16081875 1.39170741,7.28417977 C1.36991838,7.4075408 1.41526315,7.53319143 1.51083238,7.61427577 L5.09348788,9.27175942 C5.58578256,9.49923926 5.94441833,9.94224792 6.06415808,10.4707901 L6.85834281,13.8210231 L7.37015073,11.7579849 C7.42624761,11.5314234 7.59088902,11.3472576 7.80990394,11.2660826 C8.02891886,11.1849076 8.27394424,11.2172358 8.46436078,11.3524304 L15.7355631,16.5188422 Z" id="形状"></path>
                <path d="M6.74117178,18 C6.4356279,17.996112 6.16304099,17.8201448 6.05169063,17.5549087 C5.94034026,17.2896726 6.01240649,16.9880005 6.23397492,16.7918593 L9.82192308,13.710225 C10.129275,13.4592036 10.5955064,13.4831484 10.8714091,13.7641248 C11.1473118,14.0451012 11.1317221,14.4800852 10.8363168,14.7432729 L7.24836864,17.8073979 C7.11131905,17.9287863 6.93021259,17.9975594 6.74117178,18 L6.74117178,18 Z M8.11248182,13.0448722 C7.82434866,13.0433649 7.56251525,12.8884137 7.43847989,12.6460025 C7.31444453,12.4035912 7.35005408,12.1164168 7.53014468,11.9067686 L16.622118,1.31365084 C16.7796498,1.09195428 17.0582897,0.972532529 17.3413924,1.00537836 C17.6244951,1.0382242 17.8632228,1.2176714 17.9576383,1.46859913 C18.0520539,1.71952686 17.9858698,1.99864772 17.7867923,2.18911513 L8.69481895,12.7822329 C8.55314655,12.9471711 8.33915983,13.0436811 8.11248182,13.0448722 Z" id="形状"></path>
            </g>
        </g>
    </g>
</svg>