<?xml version="1.0" encoding="UTF-8"?>
<svg width="281px" height="37px" viewBox="0 0 281 37" version="1.1" xmlns="http://www.w3.org/2000/svg" xmlns:xlink="http://www.w3.org/1999/xlink">
    <title>logo_280x36@2x</title>
    <g id="页面-1" stroke="none" stroke-width="1" fill="none" fill-rule="evenodd">
        <g id="logo_280x36" transform="translate(1.000000, 1.000000)">
            <g id="编组-7">
                <g id="编组-6">
                    <g id="编组-3" fill-rule="nonzero">
                        <g id="编组-4">
                            <g id="上传" fill="#EDF6FF" stroke="#1890FF" stroke-linecap="round" stroke-linejoin="round" stroke-width="1.5">
                                <path d="M33.9183631,34.5059155 C33.2754158,34.5059155 32.654668,34.5059155 32.0561195,34.5059155 C28.8161609,34.5059155 26.2266644,34.5059155 24.2876302,34.5059155 C21.2649898,34.5059155 16.7310292,34.5059155 10.6857484,34.5059155 C4.78416983,34.5059155 0,29.6630265 0,23.6890141 C0,18.0658479 4.23876923,13.4448135 9.65831366,12.9214377 C10.4819711,5.64858592 16.5841212,0 23.9895051,0 C31.394889,0 37.4970924,5.64858592 38.3206965,12.9216 C43.7402409,13.4448135 47.9790101,18.0658479 47.9790101,23.6890141 C47.9790101,29.6630265 43.1948403,34.5059155 37.2932618,34.5059155" id="路径"></path>
                            </g>
                            <g id="形状-2" transform="translate(12.021467, 6.084507)" fill="#1890FF">
                                <path d="M21.0987001,7.77395606 C21.0987001,7.33118482 21.0987001,7.1097992 21.0987001,7.1097992 L21.0987001,5.22359371 C21.0987001,3.94177097 20.0680542,2.8990447 18.8010819,2.8990447 L17.8885992,2.8990447 L17.8885992,0.664156861 C17.8885992,0.298870587 17.5931912,0 17.2321369,0 C16.8710826,0 16.5756745,0.298870587 16.5756745,0.664156861 L16.5756745,2.8990447 L15.0493995,2.8990447 L15.0493995,0.664156861 C15.0493995,0.298870587 14.7539915,0 14.3929372,0 C14.0318829,0 13.7364748,0.298870587 13.7364748,0.664156861 L13.7364748,2.8990447 L12.2101998,2.8990447 L12.2101998,0.664156861 C12.2101998,0.298870587 11.9147918,0 11.5537375,0 C11.1926832,0 10.8972751,0.298870587 10.8972751,0.664156861 L10.8972751,2.8990447 L9.37100014,2.8990447 L9.37100014,0.664156861 C9.37100014,0.298870587 9.07559208,0 8.71453778,0 C8.35348349,0 8.05807543,0.298870587 8.05807543,0.664156861 L8.05807543,2.8990447 L5.24185192,2.8990447 C3.97487957,2.8990447 2.94423367,3.94177097 2.94423367,5.22359371 L2.94423367,7.1097992 L0.656462357,7.1097992 C0.29540806,7.1097992 0,7.40866978 0,7.77395606 C0,8.13924233 0.29540806,8.43811292 0.656462357,8.43811292 L2.94423367,8.43811292 L2.94423367,9.98227762 L0.656462357,9.98227762 C0.29540806,9.98227762 0,10.2811482 0,10.6464345 C0,11.0117208 0.29540806,11.3105913 0.656462357,11.3105913 L2.94423367,11.3105913 L2.94423367,12.854756 L0.656462357,12.854756 C0.29540806,12.854756 0,13.1536266 0,13.5189129 C0,13.8841992 0.29540806,14.1830698 0.656462357,14.1830698 L2.94423367,14.1830698 L2.94423367,15.7272345 C2.94423367,15.7272345 2.94423367,15.9486201 2.94423367,16.3913913 C2.94423367,16.8341626 2.94423367,17.0555482 2.94423367,17.0555482 L2.94423367,18.9417537 C2.94423367,20.2235764 3.97487957,21.2663027 5.24185192,21.2663027 L6.25280395,21.2663027 L6.25280395,23.6738713 C6.25280395,24.0391576 6.54821201,24.3380282 6.9092663,24.3380282 C7.2703206,24.3380282 7.56572866,24.0391576 7.56572866,23.6738713 L7.56572866,21.2663027 L9.09200364,21.2663027 L9.09200364,23.6738713 C9.09200364,24.0391576 9.3874117,24.3380282 9.748466,24.3380282 C10.1095203,24.3380282 10.4049284,24.0391576 10.4049284,23.6738713 L10.4049284,21.2663027 L11.9312033,21.2663027 L11.9312033,23.6738713 C11.9312033,24.0391576 12.2266114,24.3380282 12.5876657,24.3380282 C12.94872,24.3380282 13.244128,24.0391576 13.244128,23.6738713 L13.244128,21.2663027 L14.770403,21.2663027 L14.770403,23.6738713 C14.770403,24.0391576 15.0658111,24.3380282 15.4268654,24.3380282 C15.7879197,24.3380282 16.0833277,24.0391576 16.0833277,23.6738713 L16.0833277,21.2663027 L18.8010819,21.2663027 C20.0680542,21.2663027 21.0987001,20.2235764 21.0987001,18.9417537 L21.0987001,17.0555482 L23.3864715,17.0555482 C23.7475257,17.0555482 24.0429338,16.7566776 24.0429338,16.3913913 C24.0429338,16.0261051 23.7475257,15.7272345 23.3864715,15.7272345 L21.0987001,15.7272345 L21.0987001,14.1830698 L23.3864715,14.1830698 C23.7475257,14.1830698 24.0429338,13.8841992 24.0429338,13.5189129 C24.0429338,13.1536266 23.7475257,12.854756 23.3864715,12.854756 L21.0987001,12.854756 L21.0987001,11.3105913 L23.3864715,11.3105913 C23.7475257,11.3105913 24.0429338,11.0117208 24.0429338,10.6464345 C24.0429338,10.2811482 23.7475257,9.98227762 23.3864715,9.98227762 L21.0987001,9.98227762 L21.0987001,8.43811292 C21.0987001,8.43811292 21.0987001,8.2167273 21.0987001,7.77395606 Z M19.7857754,18.9384329 C19.7857754,19.4863623 19.3426633,19.9346682 18.8010819,19.9346682 L5.24185192,19.9346682 C4.70027047,19.9346682 4.25715838,19.4863623 4.25715838,18.9384329 L4.25715838,5.22359371 C4.25715838,4.6756643 4.70027047,4.22735842 5.24185192,4.22735842 L18.8010819,4.22735842 C19.3426633,4.22735842 19.7857754,4.6756643 19.7857754,5.22359371 L19.7857754,18.9384329 Z" id="形状"></path>
                            </g>
                        </g>
                    </g>
                    <ellipse id="椭圆形" fill="#C1E1FF" cx="34.0608229" cy="34.4788732" rx="1.50268336" ry="1.52112676"></ellipse>
                    <ellipse id="椭圆形" fill="#1890FF" cx="34.0608229" cy="34.4788732" rx="1.00178891" ry="1.01408451"></ellipse>
                </g>
                <path d="M19.4952318,19.128955 L21.4628917,19.128955 L21.8931951,20.2816901 L22.9728654,20.2816901 L21.0012936,15.2112676 L19.9490063,15.2112676 L18.0322004,20.2816901 L19.0883995,20.2816901 L19.4952318,19.128955 L19.4952318,19.128955 Z M20.4653703,16.3922166 L21.1421201,18.2744799 L19.800356,18.2744799 L20.4653703,16.3922166 Z M24.4945745,18.371213 L25.1439414,18.371213 C25.593804,18.371213 25.9380467,18.3470297 26.1766695,18.2986632 C26.3527027,18.2583578 26.524824,18.1777469 26.6930335,18.0568307 C26.861243,17.9359144 27.0020696,17.7706621 27.1116014,17.5570434 C27.2211331,17.3434246 27.275899,17.0814394 27.275899,16.7710876 C27.275899,16.3680333 27.1820146,16.0375288 26.9903341,15.7836046 C26.7986535,15.5296805 26.5639425,15.3644282 26.2822894,15.2878479 C26.0984325,15.2354509 25.7033358,15.2112676 25.1009111,15.2112676 L23.5009649,15.2112676 L23.5009649,20.2816901 L24.4945745,20.2816901 L24.4945745,18.371213 Z M24.4945745,16.0697732 L24.9757319,16.0697732 C25.335622,16.0697732 25.5703329,16.0818648 25.6916003,16.1060481 C25.8519861,16.1342619 25.9849889,16.2108422 26.0906088,16.3317584 C26.1962287,16.4526747 26.2470828,16.6058353 26.2470828,16.7872097 C26.2470828,16.9363398 26.2079643,17.0693477 26.1336392,17.1822029 C26.059314,17.2950581 25.9536941,17.3796995 25.8246031,17.4320966 C25.6916003,17.4844936 25.4295064,17.5127074 25.0383215,17.5127074 L24.4945745,17.5127074 L24.4945745,16.0697732 Z M28.0582688,15.2112676 L29.0518784,15.2112676 L29.0518784,20.2816901 L28.0582688,20.2816901 L28.0582688,15.2112676 Z" id="形状" fill="#FF8718" fill-rule="nonzero"></path>
            </g>
            <text id="柏楚联网开放平台备份" fill="#282828" fill-rule="nonzero" font-family="PangMenZhengDao" font-size="28" font-weight="normal">
                <tspan x="73.2748479" y="27.2394366">柏楚联网开放平台</tspan>
            </text>
        </g>
    </g>
</svg>