<?xml version="1.0" encoding="UTF-8"?>
<svg width="132px" height="41px" viewBox="0 0 132 41" version="1.1" xmlns="http://www.w3.org/2000/svg" xmlns:xlink="http://www.w3.org/1999/xlink">
    <title>monthly@1x</title>
    <defs>
        <rect id="path-1" x="68" y="5" width="59" height="30" rx="15"></rect>
        <filter x="-11.9%" y="-16.7%" width="123.7%" height="146.7%" filterUnits="objectBoundingBox" id="filter-2">
            <feOffset dx="0" dy="2" in="SourceAlpha" result="shadowOffsetOuter1"></feOffset>
            <feGaussianBlur stdDeviation="2" in="shadowOffsetOuter1" result="shadowBlurOuter1"></feGaussianBlur>
            <feColorMatrix values="0 0 0 0 0.80357206   0 0 0 0 0.80357206   0 0 0 0 0.80357206  0 0 0 0.5 0" type="matrix" in="shadowBlurOuter1"></feColorMatrix>
        </filter>
    </defs>
    <g id="页面-1" stroke="none" stroke-width="1" fill="none" fill-rule="evenodd">
        <g id="monthly">
            <rect id="矩形" fill="#F6F7FA" x="0" y="0" width="132" height="39" rx="19.5"></rect>
            <g id="矩形">
                <use fill="black" fill-opacity="1" filter="url(#filter-2)" xlink:href="#path-1"></use>
                <use fill="#FFFFFF" fill-rule="evenodd" xlink:href="#path-1"></use>
            </g>
            <g id="周" transform="translate(27.770000, 14.122000)" fill="#333333" fill-rule="nonzero">
                <path d="M5.894,1.372 L5.894,2.534 L3.346,2.534 L3.346,3.374 L5.894,3.374 L5.894,4.76 L2.926,4.76 L2.926,5.642 L9.856,5.642 L9.856,4.76 L6.874,4.76 L6.874,3.374 L9.394,3.374 L9.394,2.534 L6.874,2.534 L6.874,1.372 L5.894,1.372 Z M11.662,0 L1.176,0 L1.176,5.656 C1.148,8.05 0.756,10.024 2.84217094e-14,11.578 L0.756,12.264 C1.68,10.556 2.156,8.316 2.184,5.572 L2.184,0.938 L10.668,0.938 L10.668,10.71 C10.668,11.074 10.472,11.27 10.08,11.27 C9.534,11.27 8.946,11.256 8.316,11.228 L8.582,12.18 L10.388,12.18 C11.228,12.18 11.662,11.802 11.662,11.06 L11.662,0 Z M3.5,6.706 L3.5,10.192 L9.156,10.192 L9.156,6.706 L3.5,6.706 Z M8.19,9.31 L4.48,9.31 L4.48,7.56 L8.19,7.56 L8.19,9.31 Z" id="形状"></path>
            </g>
            <g id="月" transform="translate(92.946000, 14.122000)" fill="#333333" fill-rule="nonzero">
                <path d="M2.436,4.354 L8.414,4.354 L8.414,6.874 L2.436,6.874 L2.436,4.354 Z M8.414,3.416 L2.436,3.416 L2.436,0.966 L8.414,0.966 L8.414,3.416 Z M2.38,7.812 L8.414,7.812 L8.414,10.598 C8.414,11.004 8.246,11.214 7.924,11.214 C7.392,11.214 6.804,11.186 6.16,11.158 L6.44,12.152 L8.246,12.152 C9.03,12.152 9.436,11.746 9.436,10.948 L9.436,0 L1.414,0 L1.414,6.832 C1.386,8.764 0.924,10.36 0,11.62 L0.77,12.32 C1.68,11.13 2.212,9.632 2.38,7.812 Z" id="形状"></path>
            </g>
        </g>
    </g>
</svg>