<?xml version="1.0" encoding="UTF-8"?>
<svg width="14px" height="14px" viewBox="0 0 14 14" version="1.1" xmlns="http://www.w3.org/2000/svg" xmlns:xlink="http://www.w3.org/1999/xlink">
    <title>show_14x14@1x</title>
    <g id="页面-1" stroke="none" stroke-width="1" fill="none" fill-rule="evenodd">
        <g id="接口开放平台主页_个人中心" transform="translate(-838.000000, -251.000000)">
            <g id="show_14x14" transform="translate(838.000000, 251.000000)">
                <g id="显示-2" transform="translate(0.000000, 3.000000)" fill="#1890FF" fill-rule="nonzero">
                    <g id="编组-2">
                        <path d="M7.00454671,8.52173913 C5.11396252,8.52173913 3.50607475,7.69926416 2.49010855,7.0093391 C1.28015125,6.18686414 0.41589603,5.22532268 0.0961699597,4.63702846 C-0.0320566532,4.40231813 -0.0320566532,4.11817315 0.0961699597,3.88346281 C0.41589603,3.29502994 1.28015125,2.33348849 2.49010855,1.51253868 C3.50607475,0.822474969 5.11396252,0 7.00454671,0 C8.90480283,0 10.501637,0.803063894 11.5066877,1.47676684 C12.0648957,1.85112328 12.5921536,2.28773381 13.031397,2.74015051 C13.4291892,3.14958553 13.7424213,3.56068437 13.9134761,3.89760517 C14.0288413,4.12594668 14.0288413,4.39579245 13.9134761,4.62413396 C13.7424213,4.96105476 13.4298801,5.3721536 13.031397,5.78158862 C12.5921536,6.23400532 12.0642049,6.67089315 11.5066877,7.04511094 C10.501637,7.71756603 8.90480283,8.52173913 7.00454671,8.52173913 Z M0.854034047,4.26017631 C0.992204345,4.50184419 1.25099731,4.82392938 1.57099973,5.15031274 C1.99670699,5.58029789 2.46316429,5.9676236 2.96375633,6.30679685 C3.88189797,6.93072425 5.32840282,7.67375246 7.00496122,7.67375246 C8.69354044,7.67375246 10.130097,6.94833287 11.0380141,6.33979567 C12.1230654,5.61243497 12.8883907,4.75820903 13.1503616,4.26003766 C12.887838,3.76200494 12.1230654,2.907779 11.0380141,2.18027965 C10.130097,1.57174246 8.69354044,0.846322861 7.00496122,0.846322861 C5.32840282,0.846322861 3.88231248,1.58962837 2.96375633,2.21327848 C2.46312911,2.55245668 1.99666796,2.93983203 1.57099973,3.36990123 C1.2505828,3.69670054 0.991237153,4.01850843 0.854034047,4.26017631 Z" id="形状"></path>
                        <path d="M6.93499593,6.69565217 C5.59234924,6.69565217 4.5,5.60339863 4.5,4.26086957 C4.5,2.9183405 5.59234924,1.82608696 6.93499593,1.82608696 C8.27764262,1.82608696 9.36956522,2.9183405 9.36956522,4.26086957 C9.36956522,5.60339863 8.27764262,6.69565217 6.93499593,6.69565217 Z M6.93499593,2.73617968 C6.31822364,2.73600719 5.76208676,3.10737651 5.52593864,3.67710037 C5.28979052,4.24682423 5.4201426,4.90269046 5.85620546,5.33883716 C6.29226833,5.77498385 6.94815552,5.90550805 7.51799536,5.66954005 C8.08783519,5.43357206 8.45939269,4.87758785 8.45939269,4.26086957 C8.45845267,3.41936278 7.77657615,2.73735516 6.93499593,2.73617968 Z" id="形状"></path>
                    </g>
                </g>
                <rect id="矩形" x="0" y="0" width="14" height="14"></rect>
            </g>
        </g>
    </g>
</svg>